<?xml version="1.0" encoding="UTF-8" standalone="no"?>
<!-- Created with Inkscape (http://www.inkscape.org/) -->

<svg
   xmlns:dc="http://purl.org/dc/elements/1.1/"
   xmlns:cc="http://creativecommons.org/ns#"
   xmlns:rdf="http://www.w3.org/1999/02/22-rdf-syntax-ns#"
   xmlns:svg="http://www.w3.org/2000/svg"
   xmlns="http://www.w3.org/2000/svg"
   xmlns:sodipodi="http://sodipodi.sourceforge.net/DTD/sodipodi-0.dtd"
   xmlns:inkscape="http://www.inkscape.org/namespaces/inkscape"
   width="210mm"
   height="297mm"
   viewBox="0 0 210 297"
   version="1.1"
   id="svg8"
   inkscape:version="0.92.4 (5da689c313, 2019-01-14)"
   sodipodi:docname="NewHome 2.svg"
   inkscape:export-filename="D:\GitHub\CMU2019_proj\sketches\New Home 2.png"
   inkscape:export-xdpi="96"
   inkscape:export-ydpi="96">
  <defs
     id="defs2" />
  <sodipodi:namedview
     id="base"
     pagecolor="#ffffff"
     bordercolor="#666666"
     borderopacity="1.0"
     inkscape:pageopacity="0.0"
     inkscape:pageshadow="2"
     inkscape:zoom="1.4"
     inkscape:cx="391.57042"
     inkscape:cy="871.70926"
     inkscape:document-units="mm"
     inkscape:current-layer="layer1"
     showgrid="false"
     inkscape:window-width="1920"
     inkscape:window-height="1001"
     inkscape:window-x="-9"
     inkscape:window-y="-9"
     inkscape:window-maximized="1" />
  <metadata
     id="metadata5">
    <rdf:RDF>
      <cc:Work
         rdf:about="">
        <dc:format>image/svg+xml</dc:format>
        <dc:type
           rdf:resource="http://purl.org/dc/dcmitype/StillImage" />
        <dc:title />
      </cc:Work>
    </rdf:RDF>
  </metadata>
  <g
     inkscape:label="Layer 1"
     inkscape:groupmode="layer"
     id="layer1"
     style="display:inline">
    <rect
       style="fill:none;fill-opacity:0.64676621;stroke:#000000;stroke-width:2;stroke-miterlimit:4;stroke-dasharray:none;stroke-opacity:1"
       id="rect817"
       width="188.61011"
       height="273.65479"
       x="10.961308"
       y="12.005952" />
    <flowRoot
       xml:space="preserve"
       id="flowRoot855"
       style="font-style:normal;font-weight:normal;font-size:40px;line-height:1.25;font-family:sans-serif;letter-spacing:0px;word-spacing:0px;fill:#000000;fill-opacity:1;stroke:none"
       transform="scale(0.26458333)"><flowRegion
         id="flowRegion857"><rect
           id="rect859"
           width="568.57141"
           height="290"
           x="191.42857"
           y="142.51968" /></flowRegion><flowPara
         id="flowPara861" /></flowRoot>    <path
       style="fill:none;stroke:#000000;stroke-width:0.665;stroke-linecap:butt;stroke-linejoin:miter;stroke-opacity:1;stroke-miterlimit:4;stroke-dasharray:none"
       d="M 16.252976,30.705 194.65773,30.526786"
       id="path33"
       inkscape:connector-curvature="0"
       sodipodi:nodetypes="cc" />
    <flowRoot
       xml:space="preserve"
       id="flowRoot35"
       style="font-style:normal;font-weight:normal;font-size:40px;line-height:1.25;font-family:sans-serif;letter-spacing:0px;word-spacing:0px;fill:#000000;fill-opacity:1;stroke:none"
       transform="scale(0.26458333)"><flowRegion
         id="flowRegion37"><rect
           id="rect39"
           width="264.28571"
           height="41.42857"
           x="71.428574"
           y="65.376831" /></flowRegion><flowPara
         id="flowPara41">My Algfgggggd</flowPara></flowRoot>    <flowRoot
       xml:space="preserve"
       id="flowRoot43"
       style="font-style:normal;font-weight:normal;font-size:40px;line-height:1.25;font-family:sans-serif;letter-spacing:0px;word-spacing:0px;fill:#000000;fill-opacity:1;stroke:none"
       transform="matrix(0.26458333,0,0,0.26458333,63.467015,-2.6134081)"><flowRegion
         id="flowRegion45"><rect
           id="rect47"
           width="288.57144"
           height="70"
           x="71.428574"
           y="68.233971" /></flowRegion><flowPara
         id="flowPara49">Albums</flowPara></flowRoot>    <rect
       style="fill:none;fill-opacity:0.64676621;stroke:#000000;stroke-width:0.66499996;stroke-miterlimit:4;stroke-dasharray:none;stroke-opacity:1"
       id="rect856"
       width="12.473214"
       height="9.8273811"
       x="181.69781"
       y="16.974997" />
    <flowRoot
       xml:space="preserve"
       id="flowRoot858"
       style="font-style:normal;font-weight:normal;font-size:40px;line-height:1.25;font-family:sans-serif;letter-spacing:0px;word-spacing:0px;fill:#000000;fill-opacity:1;stroke:none"
       transform="scale(0.26458333)"><flowRegion
         id="flowRegion860"><rect
           id="rect862"
           width="101.42856"
           height="44.285713"
           x="681.42859"
           y="64.662544" /></flowRegion><flowPara
         id="flowPara864">+++gg+</flowPara></flowRoot>    <flowRoot
       xml:space="preserve"
       id="flowRoot866"
       style="font-style:normal;font-weight:normal;font-size:40px;line-height:1.25;font-family:sans-serif;letter-spacing:0px;word-spacing:0px;fill:#000000;fill-opacity:1;stroke:none"
       transform="matrix(0.26458333,0,0,0.26458333,21.435903,-4.6693491)"><flowRegion
         id="flowRegion868"><rect
           id="rect870"
           width="159.28572"
           height="155"
           x="612.14288"
           y="76.09111" /></flowRegion><flowPara
         id="flowPara872">+</flowPara></flowRoot>    <rect
       style="fill:none;fill-opacity:0.64676621;stroke:#000000;stroke-width:1.5;stroke-miterlimit:4;stroke-dasharray:none;stroke-opacity:1"
       id="rect874"
       width="59.066566"
       height="54.255714"
       x="16.303442"
       y="36.144943" />
    <rect
       style="display:inline;fill:none;fill-opacity:0.64676621;stroke:#000000;stroke-width:1.5;stroke-miterlimit:4;stroke-dasharray:none;stroke-opacity:1"
       id="rect874-9"
       width="59.066566"
       height="54.255714"
       x="75.370003"
       y="36.144943" />
    <flowRoot
       xml:space="preserve"
       id="flowRoot954"
       style="font-style:normal;font-weight:normal;font-size:40px;line-height:1.25;font-family:sans-serif;letter-spacing:0px;word-spacing:0px;fill:#000000;fill-opacity:1;stroke:none"
       transform="matrix(0.26458333,0,0,0.26458333,5.6126601,4.0090429)"><flowRegion
         id="flowRegion956"><rect
           id="rect958"
           width="208.09143"
           height="135.36044"
           x="90.913727"
           y="166.91537" /></flowRegion><flowPara
         id="flowPara960">Fotos 2019</flowPara></flowRoot>    <flowRoot
       xml:space="preserve"
       id="flowRoot954-7"
       style="font-style:normal;font-weight:normal;font-size:40px;line-height:1.25;font-family:sans-serif;letter-spacing:0px;word-spacing:0px;display:inline;fill:#000000;fill-opacity:1;stroke:none"
       transform="matrix(0.26458333,0,0,0.26458333,64.505349,4.3349452)"><flowRegion
         id="flowRegion956-9"><rect
           id="rect958-0"
           width="208.09143"
           height="135.36044"
           x="90.913727"
           y="166.91537" /></flowRegion><flowPara
         id="flowPara986">Fotos 2018</flowPara></flowRoot>    <path
       style="fill:#0000ff;fill-opacity:0.64676621;stroke:#000000;stroke-width:1.43171227;stroke-miterlimit:4;stroke-dasharray:none;stroke-opacity:1"
       d="M 64.579845,239.10982 V 139.48353 H 173.29751 282.01518 v 99.62629 99.6263 H 173.29751 64.579845 Z m 88.425585,29.83473 c 4.77317,-1.12348 6.98992,-5.02005 7.44226,-13.08191 0.28903,-5.1511 -0.63635,-10.45171 -2.27889,-13.05367 -0.90769,-1.43788 -2.80055,-2.98309 -4.27366,-3.48877 -1.7793,-0.61079 -5.38882,-0.60695 -7.18018,0.008 -1.71965,0.58998 -3.79474,2.48056 -4.65667,4.24263 -2.49333,5.09713 -2.53782,15.46881 -0.0894,20.83054 0.65741,1.43963 2.19145,3.11049 3.47283,3.78256 1.99299,1.04531 5.04931,1.35281 7.56368,0.76099 z m 48.99455,-0.40557 c 4.03493,-1.24626 7.14435,-4.52705 8.39538,-8.85809 0.73012,-2.52768 0.93157,-4.12977 0.93721,-7.45341 0.009,-5.13969 -0.99057,-8.33184 -3.35125,-10.7052 -2.78439,-2.79935 -7.85971,-3.54587 -11.76761,-1.73087 -1.82235,0.84638 -4.15137,3.30114 -4.86418,5.12679 -0.78863,2.01984 -0.85748,5.65077 -0.14592,7.69565 0.65075,1.87016 2.47551,3.7752 4.47607,4.67299 2.78567,1.25014 6.82706,1.14179 10.01602,-0.26852 l 1.38468,-0.61237 -0.15111,1.10246 c -0.40938,2.9868 -2.35122,5.90937 -4.72588,7.1127 -1.67758,0.85009 -4.02442,1.1858 -6.03082,0.86268 -0.88691,-0.14283 -1.81506,-0.36807 -2.06255,-0.50052 -0.24749,-0.13246 -0.51427,-0.24083 -0.59285,-0.24083 -0.0786,0 -0.14288,0.90698 -0.14288,2.0155 0,2.20456 -0.13058,2.02883 1.76777,2.37897 1.32783,0.24491 5.23091,-0.0954 6.85792,-0.59793 z m -66.96199,-1.64626 v -1.89033 l -7.5601,-0.0668 -7.5601,-0.0668 1.68859,-1.42642 c 6.11877,-5.16879 9.67667,-8.95549 11.1046,-11.81873 0.90427,-1.81321 0.93805,-1.9769 0.93805,-4.54569 0,-2.34199 -0.0762,-2.81398 -0.62924,-3.89686 -2.15754,-4.22471 -8.10674,-5.53368 -15.09126,-3.32045 l -2.08344,0.66019 v 2.13559 c 0,1.29484 0.10225,2.13559 0.25974,2.13559 0.14285,0 0.91588,-0.33122 1.71783,-0.73605 4.01383,-2.02617 8.44685,-2.16505 10.47654,-0.3282 0.87386,0.79083 1.27026,1.89047 1.24849,3.46336 -0.0248,1.79396 -0.5021,3.22709 -1.61988,4.86413 -1.22013,1.78695 -6.08709,6.65302 -9.65858,9.65681 l -3.15279,2.65165 -0.0145,2.04135 c -0.008,1.12275 0.0613,2.11712 0.15387,2.20971 0.0926,0.0926 4.58145,0.16836 9.97525,0.16836 h 9.8069 z m 49.24493,0.24883 v -1.64149 h -2.90419 -2.90419 v -13.13199 -13.13198 h -1.62143 -1.62143 l -0.17945,0.81704 c -0.41914,1.90834 -1.96286,2.90142 -4.89187,3.14698 l -1.78734,0.14984 v 1.47861 1.4786 h 3.03046 3.03045 v 9.59645 9.59645 h -3.03045 -3.03046 v 1.64149 1.6415 h 7.95495 7.95495 z m -35.55717,-48.13963 c 4.82591,-1.02288 7.78266,-5.43066 7.77168,-11.58563 -0.003,-1.81728 -0.59681,-4.57055 -1.30037,-6.03176 -0.85544,-1.77663 -2.76228,-3.64473 -4.57182,-4.47893 -1.42723,-0.65796 -1.82623,-0.72454 -4.34931,-0.72584 -2.48197,-10e-4 -2.9306,0.0702 -4.21111,0.67043 -2.75989,1.29379 -4.75402,3.82569 -5.53726,7.03056 -0.43786,1.79163 -0.43577,5.79761 0.004,7.57615 1.42354,5.7578 6.32323,8.78943 12.19424,7.54502 z m 40.49174,-0.10537 c 4.03768,-1.04361 6.55287,-4.26737 7.17012,-9.19002 0.49287,-3.93072 -0.40031,-7.79698 -2.35772,-10.20572 -2.03989,-2.51024 -4.86254,-3.62962 -8.52185,-3.3795 -4.68555,0.32027 -8.13307,3.52574 -9.03409,8.39981 -0.54872,2.96827 -0.29176,6.0198 0.73883,8.77433 0.63766,1.70429 2.62699,4.00344 4.14151,4.78649 2.27741,1.1775 5.26264,1.48677 7.8632,0.81461 z m 23.28862,-0.24757 c 1.83952,-0.54628 3.58794,-1.81971 4.47314,-3.25794 0.67498,-1.09666 0.76498,-1.46804 0.76498,-3.15673 0,-2.25674 -0.45521,-3.23264 -2.0892,-4.47892 -1.1289,-0.86104 -2.45292,-1.30942 -5.86576,-1.98646 -3.80948,-0.75572 -5.05076,-1.54498 -5.05076,-3.21149 0,-1.38141 0.37363,-1.92994 1.72034,-2.52565 2.22587,-0.98461 5.8327,-0.53992 8.87165,1.0938 0.76056,0.40887 1.47075,0.64243 1.5902,0.52297 0.11873,-0.11872 0.18213,-1.05717 0.14089,-2.08543 l -0.075,-1.86956 -1.72987,-0.57795 c -7.65938,-2.55901 -14.53843,0.16171 -14.55083,5.75498 -0.004,1.70366 0.87303,3.73445 1.94057,4.49461 1.16302,0.82815 2.99331,1.46152 5.95694,2.0614 4.33963,0.8784 5.22646,1.4434 5.22646,3.32979 0,1.19765 -0.96491,2.38207 -2.22594,2.73231 -1.35934,0.37754 -4.52914,0.31342 -5.95975,-0.12057 -0.6825,-0.20704 -2.07907,-0.82854 -3.10349,-1.3811 -1.37262,-0.74039 -1.89632,-0.91676 -1.99082,-0.67049 -0.0705,0.18381 -0.0945,1.17335 -0.0532,2.199 l 0.075,1.86481 1.80273,0.69154 c 3.19503,1.22565 7.18291,1.45279 10.13175,0.57708 z m -40.35745,0.1106 1.27512,-0.27347 v -1.7763 c 0,-1.7216 -0.0175,-1.77131 -0.56821,-1.61468 -3.48508,0.99122 -5.45321,0.63045 -6.42854,-1.17837 -0.38018,-0.70507 -0.45422,-1.7361 -0.53487,-7.44749 l -0.0936,-6.62913 h 3.81262 3.81261 v -1.6415 -1.64149 h -3.78807 -3.78807 v -3.15673 -3.15673 h -1.89404 -1.89403 v 3.15673 3.15673 h -1.26269 -1.2627 v 1.64149 1.6415 h 1.24536 1.24535 l 0.0805,7.26047 0.0805,7.26047 0.71008,1.446 c 1.12768,2.29644 2.78631,3.17846 6.03289,3.20817 1.06961,0.01 2.51855,-0.10527 3.21986,-0.25567 z m -52.06956,-7.11328 0.0671,-7.00793 h 6.30945 6.30946 v -1.76777 -1.76777 h -6.31345 -6.31345 v -4.04061 -4.04061 h 7.3236 7.32361 v -1.76777 -1.76776 h -9.47018 -9.47018 v 14.47885 c 0,7.96337 0.0801,14.55897 0.17805,14.6569 0.0979,0.0979 1.03547,0.14528 2.08344,0.10523 l 1.90539,-0.0728 z"
       id="path1022"
       inkscape:connector-curvature="0"
       transform="scale(0.26458333)" />
    <path
       style="fill:#0000ff;fill-opacity:0.64676621;stroke:#000000;stroke-width:1.43171227;stroke-miterlimit:4;stroke-dasharray:none;stroke-opacity:1"
       d="m 185.23065,215.71626 c -3.15944,-0.46562 -4.98834,-3.37381 -4.98834,-7.93211 0,-6.04594 2.90071,-9.16953 7.5895,-8.17263 1.91736,0.40765 3.54209,2.01981 4.17761,4.14529 0.59135,1.97773 0.60791,5.79544 0.0334,7.70009 -0.9592,3.18004 -3.47255,4.75153 -6.81218,4.25936 z"
       id="path1024"
       inkscape:connector-curvature="0"
       transform="scale(0.26458333)" />
    <path
       style="fill:#0000ff;fill-opacity:0.64676621;stroke:#000000;stroke-width:1.43171227;stroke-miterlimit:4;stroke-dasharray:none;stroke-opacity:1"
       d="m 145.89713,215.84307 c -0.20835,-0.0327 -0.79207,-0.12651 -1.29717,-0.20854 -1.38732,-0.22532 -3.10277,-1.86475 -3.74371,-3.57784 -1.15408,-3.08454 -0.89701,-7.52189 0.5779,-9.97532 0.5986,-0.99574 1.11882,-1.49546 2.05745,-1.97637 2.51769,-1.28996 5.95676,-0.60299 7.4451,1.4872 1.75393,2.46317 2.01634,8.18699 0.51064,11.1384 -0.68441,1.34157 -2.31824,2.71085 -3.45171,2.89282 -0.52914,0.085 -1.13255,0.18249 -1.34089,0.21675 -0.20834,0.0343 -0.54927,0.0356 -0.75761,0.003 z"
       id="path1026"
       inkscape:connector-curvature="0"
       transform="scale(0.26458333)" />
    <path
       style="fill:#0000ff;fill-opacity:0.64676621;stroke:#000000;stroke-width:1.43171227;stroke-miterlimit:4;stroke-dasharray:none;stroke-opacity:1"
       d="m 147.64148,265.17735 c -0.90708,-0.46881 -1.26513,-0.87765 -1.93517,-2.20971 -0.98838,-1.96492 -1.3056,-4.06395 -1.31662,-8.71216 -0.0142,-5.98682 0.62243,-8.90106 2.32992,-10.66558 1.73955,-1.79764 5.45432,-1.79764 7.19387,0 1.88876,1.95185 2.46945,4.99906 2.27285,11.92694 -0.13778,4.85486 -0.52692,6.81646 -1.67098,8.42315 -1.26808,1.78086 -4.64584,2.38889 -6.87387,1.23736 z"
       id="path1028"
       inkscape:connector-curvature="0"
       transform="scale(0.26458333)" />
    <path
       style="fill:#0000ff;fill-opacity:0.64676621;stroke:#000000;stroke-width:1.43171227;stroke-miterlimit:4;stroke-dasharray:none;stroke-opacity:1"
       d="m 197.66744,254.07292 c -0.62503,-0.33396 -1.47734,-1.09125 -1.89403,-1.68285 -0.72155,-1.02445 -0.75762,-1.19785 -0.75762,-3.64242 0,-2.26946 0.0731,-2.69709 0.63135,-3.69197 0.96968,-1.7282 2.36235,-2.5743 4.48758,-2.72636 2.08174,-0.14895 3.28826,0.18961 4.5154,1.26705 1.69396,1.48732 2.61377,4.23992 2.61377,7.8219 v 1.73536 l -1.45209,0.6735 c -1.23482,0.57273 -1.86776,0.68693 -4.23002,0.76325 -2.54515,0.0822 -2.87314,0.0389 -3.91434,-0.51746 z"
       id="path1030"
       inkscape:connector-curvature="0"
       transform="scale(0.26458333)" />
    <path
       style="fill:#008000;fill-opacity:0.64676621;stroke:#000000;stroke-width:2.02474689;stroke-miterlimit:4;stroke-dasharray:none;stroke-opacity:1"
       d="m 288.0473,239.07816 v -99.46428 h 108.57143 108.57143 v 99.46428 99.46429 H 396.61873 288.0473 Z m 89.58913,30.3052 c 3.54639,-1.723 5.02425,-5.19616 5.31443,-12.48963 0.21374,-5.37195 -0.22595,-8.64792 -1.55214,-11.56451 -1.77127,-3.89542 -3.82636,-5.16896 -8.35142,-5.17534 -5.23591,-0.007 -7.74178,1.89287 -9.38532,7.11712 -0.677,2.15194 -0.79325,3.33269 -0.79325,8.05716 0,4.77508 0.11248,5.89364 0.81859,8.1406 1.57643,5.01647 5.06827,7.4473 10.07427,7.01318 1.08035,-0.0937 2.82403,-0.58806 3.87484,-1.09858 z m 51.23106,0.13115 c 3.56847,-1.63369 5.34799,-4.22214 5.36228,-7.79983 0.0107,-2.67275 -0.93634,-4.43823 -3.25492,-6.06807 l -1.83328,-1.28869 1.4194,-1.14066 c 2.1287,-1.71066 2.95063,-3.58451 2.7759,-6.32853 -0.1181,-1.85479 -0.33453,-2.48473 -1.23659,-3.59926 -1.64193,-2.02865 -3.92238,-3.0512 -7.23201,-3.24279 -3.41658,-0.19778 -6.07984,0.50519 -8.02781,2.11895 -3.5926,2.97623 -3.54727,8.3109 0.093,10.94791 l 1.44084,1.04374 -1.55955,1.11999 c -4.45199,3.19718 -4.46108,10.11739 -0.0175,13.2958 3.11158,2.22564 8.36938,2.63573 12.07019,0.94144 z m -71.17733,-1.3292 v -1.78572 h -7.67978 -7.67977 l 4.34319,-3.82775 c 4.45043,-3.92226 7.6918,-7.50162 8.681,-9.58619 2.68958,-5.66787 0.35508,-11.33333 -5.2212,-12.67105 -2.29132,-0.54968 -6.5308,-0.26805 -9.40773,0.62496 l -2.14285,0.66516 -0.10633,2.21886 c -0.0585,1.22038 0.006,2.21887 0.14411,2.21887 0.13774,0 1.06952,-0.38455 2.07061,-0.85456 4.35137,-2.04294 8.56901,-1.96062 10.38938,0.20276 1.26163,1.49936 1.31573,4.1248 0.13618,6.60853 -0.90099,1.89715 -5.69245,6.95828 -10.08295,10.65041 l -3.39758,2.85714 -0.0231,2.23215 -0.0231,2.23214 h 10 10 z m 49.28571,0.17857 v -1.60715 h -3.03571 -3.03572 v -13.21428 -13.21429 h -1.60714 c -1.36479,0 -1.60714,0.10687 -1.60714,0.70865 0,0.38976 -0.44197,1.19969 -0.98214,1.79985 -0.80051,0.88938 -1.42799,1.16439 -3.39286,1.487 l -2.41072,0.39581 v 1.37578 1.37577 h 3.03572 3.03571 v 9.64286 9.64285 h -3.03571 -3.03572 v 1.60715 1.60714 h 8.03572 8.03571 z m -33.3006,-48.96458 c 2.06064,-1.00103 3.21255,-2.29245 4.44526,-4.98365 0.67699,-1.47798 0.80982,-2.38364 0.81429,-5.55207 0.005,-3.62715 -0.0472,-3.88939 -1.24756,-6.25 -1.48683,-2.92405 -3.52547,-4.50341 -6.6504,-5.15214 -4.84558,-1.00594 -9.3513,1.18533 -11.22485,5.45899 -1.10586,2.52253 -1.37315,7.54336 -0.55197,10.36812 1.8079,6.21896 8.42138,9.02248 14.41523,6.11075 z m 39.77351,0.16146 c 1.9995,-0.86017 3.65489,-2.5826 4.7369,-4.92874 1.0911,-2.36585 1.0911,-9.09901 0,-11.46486 -1.85888,-4.03063 -4.73189,-5.84146 -9.24552,-5.82734 -2.37307,0.007 -3.16869,0.16848 -4.69601,0.95063 -2.39069,1.22429 -3.90624,3.10003 -4.77886,5.91462 -1.31207,4.232 -0.61761,9.8313 1.57603,12.70732 2.63526,3.45501 7.91346,4.58163 12.40746,2.64837 z m -17.57753,0.2522 c 0.21469,-0.13268 0.39034,-1.05252 0.39034,-2.04409 0,-1.58144 -0.0768,-1.76979 -0.625,-1.53368 -0.34375,0.14804 -1.59152,0.34225 -2.77283,0.43159 -3.92017,0.29646 -4.40124,-0.8628 -4.44098,-10.70153 l -0.0183,-4.54149 3.83929,-0.10137 3.83929,-0.10137 0.10885,-1.69643 0.10885,-1.69643 h -3.94814 -3.94814 v -3.23295 -3.23295 l -1.875,0.10795 -1.875,0.10795 -0.10319,3.125 -0.10319,3.125 h -1.25566 -1.25566 l 0.10885,1.69643 c 0.10438,1.62661 0.15663,1.70104 1.26957,1.80834 l 1.16071,0.11192 v 6.03122 c 0,3.31717 0.17675,6.85537 0.39278,7.86267 0.46065,2.14793 2.0165,4.11211 3.66137,4.62227 1.19266,0.36991 6.68228,0.2592 7.34123,-0.14805 z m 39.7698,-0.0469 c 4.60422,-1.56882 6.38543,-7.25936 3.20157,-10.22825 -1.41828,-1.32251 -2.23755,-1.6664 -5.84663,-2.45409 -3.89584,-0.85028 -5.22387,-1.48328 -5.51086,-2.6267 -0.59536,-2.37213 0.9781,-3.59649 4.6075,-3.58525 2.52142,0.008 2.84289,0.10888 7.13336,2.24284 0.1572,0.0782 0.23756,-0.87242 0.17857,-2.11246 l -0.10726,-2.25462 -2.14286,-0.65262 c -2.34427,-0.71397 -6.7592,-0.86652 -8.67338,-0.2997 -3.32798,0.98547 -5.17866,3.23233 -5.17866,6.28727 0,3.72968 1.89668,5.30776 7.95919,6.62222 4.33987,0.94097 5,1.36043 5,3.17716 0,1.07218 -0.21214,1.56129 -0.918,2.11651 -2.03048,1.59718 -6.22076,1.30452 -10.03275,-0.7007 -1.08841,-0.57254 -2.05064,-1.04098 -2.13827,-1.04098 -0.0876,0 -0.1115,1.00447 -0.053,2.23215 l 0.10633,2.23214 2.32143,0.79093 c 2.87105,0.97818 7.61804,1.09771 10.09375,0.25415 z m -92.95089,-6.75937 v -6.96428 h 6.25 6.25 v -1.96429 -1.96428 h -6.25 -6.25 v -3.92857 -3.92858 h 7.32143 7.32143 v -1.78571 -1.78571 h -9.46429 -9.46429 v 14.64285 14.64286 h 2.14286 2.14286 z"
       id="path1036"
       inkscape:connector-curvature="0"
       transform="scale(0.26458333)" />
    <path
       style="fill:#008000;fill-opacity:0.64676621;stroke:#000000;stroke-width:2.02474689;stroke-miterlimit:4;stroke-dasharray:none;stroke-opacity:1"
       d="m 423.14737,252.07262 c -5.21028,-2.20228 -6.38849,-6.00091 -2.53332,-8.16763 1.88839,-1.06133 5.2916,-0.91894 6.99305,0.29261 2.37002,1.6876 2.2936,5.50761 -0.1564,7.81826 -0.68198,0.6432 -1.34906,1.16431 -1.4824,1.15804 -0.13334,-0.006 -1.40275,-0.50185 -2.82093,-1.10128 z"
       id="path1038"
       inkscape:connector-curvature="0"
       transform="scale(0.26458333)" />
    <path
       style="fill:#008000;fill-opacity:0.64676621;stroke:#000000;stroke-width:2.02474689;stroke-miterlimit:4;stroke-dasharray:none;stroke-opacity:1"
       d="m 421.90136,267.13792 c -2.59276,-0.83492 -4.2112,-3.0311 -4.2112,-5.71449 0,-2.00758 0.71599,-3.56634 2.26142,-4.92324 l 1.29638,-1.13824 1.98635,0.6834 c 3.01702,1.03801 5.52614,2.53038 6.09108,3.62284 1.2166,2.35265 0.23295,5.75921 -1.99578,6.91174 -1.34779,0.69697 -4.11374,0.98129 -5.42825,0.55799 z"
       id="path1040"
       inkscape:connector-curvature="0"
       transform="scale(0.26458333)" />
    <path
       style="fill:#008000;fill-opacity:0.64676621;stroke:#000000;stroke-width:2.02474689;stroke-miterlimit:4;stroke-dasharray:none;stroke-opacity:1"
       d="m 371.12562,266.76007 c -3.08896,-0.9718 -3.97412,-3.52544 -3.96257,-11.43191 0.01,-6.68675 0.34976,-8.35582 2.08861,-10.25324 0.96387,-1.05177 1.46792,-1.29673 2.96396,-1.44048 2.09347,-0.20116 4.03962,0.55005 4.92476,1.90095 1.25823,1.92031 1.70895,5.05532 1.56125,10.85931 -0.12806,5.03164 -0.22409,5.71836 -1.02283,7.31397 -0.48482,0.96852 -1.28328,2.04607 -1.77436,2.39457 -1.09382,0.77625 -3.39421,1.09243 -4.77882,0.65683 z"
       id="path1042"
       inkscape:connector-curvature="0"
       transform="scale(0.26458333)" />
    <path
       style="fill:#008000;fill-opacity:0.64676621;stroke:#000000;stroke-width:2.02474689;stroke-miterlimit:4;stroke-dasharray:none;stroke-opacity:1"
       d="m 367.15444,216.85218 c -1.37231,-0.3436 -2.77444,-1.64952 -3.51823,-3.27682 -1.14032,-2.49485 -1.06913,-7.48533 0.13758,-9.64413 1.16563,-2.08532 2.41603,-2.95242 4.55378,-3.15783 2.2986,-0.22087 4.12389,0.63814 5.3766,2.53031 0.88533,1.33725 0.95027,1.70567 0.95027,5.39062 0,3.29151 -0.12334,4.195 -0.73498,5.38383 -1.16222,2.259 -4.06614,3.44976 -6.76502,2.77402 z"
       id="path1044"
       inkscape:connector-curvature="0"
       transform="scale(0.26458333)" />
    <path
       style="fill:#008000;fill-opacity:0.64676621;stroke:#000000;stroke-width:2.02474689;stroke-miterlimit:4;stroke-dasharray:none;stroke-opacity:1"
       d="m 406.27124,216.33489 c -2.40109,-1.24476 -3.30897,-3.26572 -3.30897,-7.36583 0,-5.62928 1.84535,-8.10518 6.04098,-8.10518 2.71053,0 3.84891,0.71919 5.10272,3.22373 1.18192,2.36094 1.24305,6.99832 0.12505,9.48775 -1.42075,3.16359 -4.87222,4.36016 -7.95978,2.75953 z"
       id="path1046"
       inkscape:connector-curvature="0"
       transform="scale(0.26458333)" />
    <rect
       style="display:inline;fill:none;fill-opacity:0.64676621;stroke:#000000;stroke-width:0.66499996;stroke-miterlimit:4;stroke-dasharray:none;stroke-opacity:1"
       id="rect856-3"
       width="12.473214"
       height="9.8273811"
       x="16.214035"
       y="17.600506" />
    <path
       style="fill:none;stroke:#000000;stroke-width:0.60000002;stroke-linecap:butt;stroke-linejoin:miter;stroke-miterlimit:4;stroke-dasharray:none;stroke-opacity:1"
       d="m 18.174328,20.041954 h 8.285356"
       id="path3783"
       inkscape:connector-curvature="0" />
    <path
       style="display:inline;fill:none;stroke:#000000;stroke-width:0.60000002;stroke-linecap:butt;stroke-linejoin:miter;stroke-miterlimit:4;stroke-dasharray:none;stroke-opacity:1"
       d="m 18.174327,22.246927 h 8.285357"
       id="path3783-4"
       inkscape:connector-curvature="0" />
    <path
       style="display:inline;fill:none;stroke:#000000;stroke-width:0.60000002;stroke-linecap:butt;stroke-linejoin:miter;stroke-miterlimit:4;stroke-dasharray:none;stroke-opacity:1"
       d="m 18.174327,24.451901 h 8.285356"
       id="path3783-0"
       inkscape:connector-curvature="0" />
    <rect
       style="fill:#ffffff;fill-opacity:1;stroke:#000000;stroke-width:0.57231778;stroke-miterlimit:4;stroke-dasharray:none;stroke-opacity:1"
       id="rect55"
       width="33.517517"
       height="11.064081"
       x="16.200193"
       y="27.414043" />
    <flowRoot
       xml:space="preserve"
       id="flowRoot862"
       style="font-style:normal;font-weight:normal;font-size:40px;line-height:1.25;font-family:sans-serif;letter-spacing:0px;word-spacing:0px;fill:#000000;fill-opacity:1;stroke:none"
       transform="scale(0.26458333)"><flowRegion
         id="flowRegion864"><rect
           id="rect866"
           width="126.62807"
           height="41.764687"
           x="61.281391"
           y="103.66445" /></flowRegion><flowPara
         id="flowPara868">FF</flowPara></flowRoot>    <flowRoot
       xml:space="preserve"
       id="flowRoot870"
       style="font-style:normal;font-weight:normal;font-size:40px;line-height:1.25;font-family:sans-serif;letter-spacing:0px;word-spacing:0px;fill:#000000;fill-opacity:1;stroke:none"
       transform="matrix(0.13346213,0,0,0.13044584,27.808411,27.82764)"><flowRegion
         id="flowRegion872"><rect
           id="rect875"
           width="257.90945"
           height="130.05231"
           x="-70"
           y="15.376828" /></flowRegion><flowPara
         id="flowPara877">Find Users</flowPara></flowRoot>    <rect
       style="display:inline;fill:#ffffff;fill-opacity:1;stroke:#000000;stroke-width:0.57231784;stroke-miterlimit:4;stroke-dasharray:none;stroke-opacity:1"
       id="rect55-0"
       width="33.517517"
       height="11.064081"
       x="16.200193"
       y="38.478127" />
    <flowRoot
       xml:space="preserve"
       id="flowRoot870-0"
       style="font-style:normal;font-weight:normal;font-size:40px;line-height:1.25;font-family:sans-serif;letter-spacing:0px;word-spacing:0px;display:inline;fill:#000000;fill-opacity:1;stroke:none"
       transform="matrix(0.13346213,0,0,0.13044584,27.808411,38.891723)"><flowRegion
         id="flowRegion872-9"><rect
           id="rect875-4"
           width="257.90945"
           height="130.05231"
           x="-70"
           y="15.376828" /></flowRegion><flowPara
         id="flowPara877-1">Log Out</flowPara></flowRoot>  </g>
</svg>
